<?xml version="1.0" encoding="UTF-8" standalone="no"?>
<!-- Created with Inkscape (http://www.inkscape.org/) -->

<svg
   width="267.60648mm"
   height="268.47552mm"
   viewBox="0 0 267.60648 268.47552"
   version="1.1"
   id="svg5"
   xml:space="preserve"
   xmlns="http://www.w3.org/2000/svg"
   xmlns:svg="http://www.w3.org/2000/svg"><defs
     id="defs2" /><g
     id="layer2"
     transform="rotate(27.924869,453.55581,229.01304)"><path
       id="path26899"
       style="display:inline;opacity:1;mix-blend-mode:normal;fill:#d8a65d;fill-opacity:1;fill-rule:nonzero;stroke:#000000;stroke-width:3.80296;stroke-linejoin:bevel"
       d="M 255.05303,265.31902 A 132.34125,131.8147 76.974453 0 1 156.45777,423.96419 132.34125,131.8147 76.974453 0 1 -1.7930931,324.73726 132.34125,131.8147 76.974453 0 1 96.802172,166.09207 132.34125,131.8147 76.974453 0 1 255.05303,265.31902 Z" /><path
       id="path26903"
       style="display:inline;opacity:1;mix-blend-mode:normal;fill:#5d8fd8;fill-opacity:1;fill-rule:nonzero;stroke:#000000;stroke-width:3.80296;stroke-linejoin:bevel"
       d="m 210.12628,192.63551 c -0.002,0.004 -0.004,0.009 -0.006,0.0131 -10.97309,24.64628 -24.16606,48.28508 -39.28603,70.62335 l 10.99174,20.73802 c -0.9791,0.9478 -2.30944,2.04234 -3.99039,3.28417 -1.66481,1.27226 -3.50141,2.44071 -5.51015,3.5054 -2.03919,1.08083 -3.88904,1.71029 -5.54901,1.88838 -1.62953,0.16195 -3.09795,-0.0342 -4.40549,-0.5887 -1.32367,-0.58495 -2.51564,-1.47364 -3.57636,-2.66579 -1.06072,-1.19215 -2.02677,-2.61009 -2.89789,-4.25361 l -0.33881,-0.63923 c -3.26773,4.28916 -6.61167,8.51958 -10.02547,12.69361 0.83535,-0.17872 1.73406,-0.52081 2.69799,-1.03172 0.82176,-0.43556 1.66394,-0.97944 2.52678,-1.6317 0.86285,-0.65226 1.6015,-1.35578 2.21537,-2.10999 l 3.91065,5.06201 c -0.61388,0.75421 -1.4499,1.56725 -2.50783,2.43988 -1.05794,0.87262 -2.30217,1.6881 -3.73265,2.44629 -2.19136,1.16149 -4.24764,1.84187 -6.16906,2.04157 -1.65621,0.14469 -3.19961,0.0145 -4.63233,-0.38659 -29.21855,34.37544 -63.384795,64.54608 -101.272524,89.04409 -0.06904,0.0446 -0.139565,0.0871 -0.208626,0.13163 a 132.34125,131.8147 90 0 0 88.26976,34.12934 132.34125,131.8147 90 0 0 131.8146,-132.34074 132.34125,131.8147 90 0 0 -48.31834,-102.39276 z m -70.28487,111.42844 c 1.91931,-2.25805 3.8149,-4.53577 5.69108,-6.82975 -1.16919,0.25013 -2.2132,0.17721 -3.13048,-0.22344 -1.5422,-0.70303 -2.88602,-2.13467 -4.03138,-4.29559 -1.08082,-2.03919 -1.46488,-3.94111 -1.15234,-5.70518 0.34297,-1.78021 1.51863,-3.20227 3.52738,-4.26697 0.9435,-0.50008 1.84399,-0.86036 2.70167,-1.08104 0.85768,-0.22068 1.6707,-0.37918 2.4389,-0.47446 l -1.46443,-6.18254 c -1.23022,0.10625 -2.43443,0.33501 -3.61259,0.68657 -1.1943,0.32112 -2.43063,0.82041 -3.70892,1.49794 -1.94788,1.03243 -3.50496,2.28674 -4.67184,3.76291 -1.16688,1.47617 -1.97654,3.07476 -2.42878,4.79593 -0.46838,1.69072 -0.58017,3.46544 -0.33573,5.32416 0.25875,1.81215 0.84787,3.58588 1.76737,5.32071 0.95178,1.7957 2.06724,3.34837 3.34649,4.6586 1.29356,1.26368 2.74083,2.19255 4.34208,2.78632 0.23693,0.0839 0.47815,0.1577 0.72152,0.22583 z m 15.71655,-19.52336 c 1.72026,-2.25797 3.41924,-4.53193 5.09812,-6.82076 l -5.04683,-9.5218 -6.80233,3.60543 z m 5.09812,-6.82076 1.60765,3.03315 c 1.16149,2.19136 2.28943,3.62041 3.38393,4.28784 1.09449,0.66744 2.43313,0.58194 4.01578,-0.25691 0.48697,-0.25811 0.99605,-0.54744 1.52776,-0.86824 0.51558,-0.35124 0.97046,-0.67035 1.36429,-0.95706 l -6.65012,-12.54674 c -1.72712,2.45218 -3.47527,4.88941 -5.24929,7.30796 z m 5.24929,-7.30796 c 1.6654,-2.36455 3.30783,-4.74488 4.92895,-7.13992 l -1.30079,-2.45419 -6.80234,3.60543 z M 37.80016,320.87414 c 0.808733,2.26138 1.769699,4.77346 2.883107,7.53611 1.127712,2.71607 2.33516,5.54603 3.622361,8.48946 1.301506,2.89686 2.611108,5.80918 3.928745,8.73648 1.348073,2.91116 2.622871,5.64633 3.82393,8.20658 l 6.939309,-3.67803 c -1.537997,-3.12239 -3.19067,-6.53481 -4.958167,-10.2373 -1.767497,-3.70249 -3.475441,-7.47562 -5.123024,-11.31964 1.225373,0.98792 2.584503,2.08051 4.076804,3.27783 1.4923,1.19732 2.969266,2.40296 4.431131,3.61641 1.492301,1.19731 2.922223,2.34989 4.289126,3.45772 1.350771,1.07741 2.505135,2.00552 3.46358,2.78405 l 4.976413,-2.63764 c -0.106249,-1.23022 -0.226309,-2.70654 -0.359657,-4.42921 -0.14948,-1.75311 -0.315828,-3.57542 -0.499399,-5.4664 l -0.459681,-5.72139 c -0.153136,-1.90711 -0.294363,-3.64522 -0.424055,-5.21389 2.256294,3.52139 4.420494,7.05269 6.492348,10.59386 2.071853,3.54118 3.967649,6.82473 5.68826,9.85033 l 6.939309,-3.67803 c -1.444544,-2.43119 -3.007681,-5.01354 -4.690545,-7.74725 -1.652428,-2.74985 -3.327402,-5.46851 -5.02457,-8.15566 -1.682863,-2.73372 -3.347025,-5.32161 -4.992142,-7.76344 -1.630813,-2.48841 -3.155058,-4.70194 -4.572503,-6.64068 l -6.482715,3.43603 c -0.01549,1.29474 0.007,2.88129 0.06698,4.7598 0.0743,1.83194 0.175347,3.82536 0.30353,5.97961 0.142488,2.10769 0.309211,4.26072 0.500093,6.45971 0.190882,2.19899 0.371243,4.26738 0.54051,6.20493 -1.508433,-1.22776 -3.119372,-2.53789 -4.832033,-3.9303 -1.712661,-1.39241 -3.416073,-2.73095 -5.110774,-4.01592 -1.680398,-1.33153 -3.27337,-2.53419 -4.778147,-3.60793 -1.490472,-1.12032 -2.77561,-2.03762 -3.855797,-2.75162 z m 52.962284,-19.12426 c -1.460907,0.77432 -2.746243,1.8066 -3.855909,3.0965 -1.079229,1.27376 -1.869258,2.72545 -2.369893,4.3553 -0.500635,1.62986 -0.6581,3.42879 -0.472701,5.39677 0.199702,1.92142 0.864184,3.94771 1.993404,6.0782 0.93564,1.76527 2.050193,3.27942 3.343749,4.54309 1.323991,1.24754 2.801711,2.16027 4.433395,2.73791 1.645987,0.53107 3.429692,0.6966 5.351108,0.4969 1.951853,-0.21583 4.008133,-0.89621 6.169063,-2.04156 0.8522,-0.45169 1.68052,-0.94923 2.48432,-1.49223 0.8038,-0.54299 1.53043,-1.08413 2.18023,-1.62347 0.69636,-0.52503 1.30028,-1.04014 1.8122,-1.54538 0.51192,-0.50525 0.9025,-0.94569 1.17093,-1.32188 l -3.84123,-5.04031 c -0.58344,0.73808 -1.41922,1.55158 -2.50759,2.44033 -1.07407,0.84219 -2.23503,1.59404 -3.48289,2.25544 -1.94787,1.03243 -3.718106,1.44418 -5.310215,1.23543 -1.592108,-0.20876 -2.835072,-0.97291 -3.729309,-2.29229 l 15.431034,-8.17889 c -0.16314,-0.38136 -0.35032,-0.80808 -0.56186,-1.28074 -0.22767,-0.5031 -0.44645,-0.95266 -0.65616,-1.34833 -2.14552,-4.04793 -4.75622,-6.58205 -7.83149,-7.60311 -3.091398,-1.05149 -6.341401,-0.67444 -9.750186,1.13232 z M 116.9942,288.02175 c -2.03918,1.08083 -3.79067,2.26268 -5.25491,3.54558 -1.44994,1.23634 -2.67073,2.39041 -3.66231,3.46178 l 12.05029,22.73516 6.80233,-3.60543 -9.72725,-18.35232 c 0.25596,-0.25263 0.6571,-0.56275 1.20311,-0.93012 0.56032,-0.41394 1.05326,-0.73372 1.47936,-0.95956 0.9435,-0.50009 1.8749,-0.87675 2.79345,-1.12969 0.90242,-0.28338 1.69817,-0.51014 2.38754,-0.6806 l -1.83497,-6.22066 c -0.44588,0.0414 -0.95193,0.15361 -1.51773,0.33654 -0.58193,0.1525 -1.14795,0.33551 -1.69762,0.54887 -0.5658,0.18294 -1.11523,0.39615 -1.64876,0.63995 -0.54967,0.21337 -1.0073,0.41692 -1.37253,0.6105 z m 68.52556,-36.3205 c 0.36523,-0.19358 0.82286,-0.39714 1.37253,-0.61051 0.53353,-0.2438 1.08296,-0.45701 1.64876,-0.63994 0.54967,-0.21337 1.11569,-0.39638 1.69762,-0.54887 0.5658,-0.18294 1.07185,-0.29515 1.51773,-0.33655 l 1.83497,6.22066 c -0.68937,0.17046 -1.48512,0.39722 -2.38754,0.6806 -0.91855,0.25295 -1.84995,0.62961 -2.79345,1.12969 -0.4261,0.22585 -0.91904,0.54562 -1.47936,0.95956 -0.54601,0.36738 -0.94715,0.6775 -1.20312,0.93012 l 9.72726,18.35232 -6.80233,3.60543 -12.05029,-22.73516 c 0.99158,-1.07137 2.21237,-2.22543 3.66231,-3.46177 1.46424,-1.28291 3.21573,-2.46476 5.25491,-3.54558 z m 8.347,-3.7808 7.21327,-3.82324 c 0.93349,1.02567 1.96881,2.13389 3.10653,3.32421 1.15203,1.14376 2.33563,2.30989 3.55035,3.49839 1.19859,1.15806 2.38128,2.28567 3.54761,3.38286 1.19676,1.08106 2.2983,2.05667 3.30514,2.92651 -0.18508,-1.30539 -0.41932,-2.7407 -0.70302,-4.30571 -0.28369,-1.56501 -0.59908,-3.15232 -0.94548,-4.76207 -0.33209,-1.65631 -0.67838,-3.26624 -1.03908,-4.82942 -0.3464,-1.60975 -0.68188,-3.0889 -1.00666,-4.43721 l 7.03063,-3.72643 c 1.08242,5.35213 1.95079,10.44779 2.60497,15.28618 0.65417,4.83838 1.10653,9.62744 1.35773,14.36752 0.0868,1.70837 0.0609,3.20358 -0.0782,4.48585 -0.12293,1.3127 -0.40342,2.47482 -0.84167,3.48682 -0.42213,1.04244 -1.04781,1.95909 -1.87656,2.74922 -0.78219,0.80444 -1.81238,1.54548 -3.09067,2.22301 -1.06525,0.56461 -2.11082,0.98229 -3.13681,1.25319 -0.97942,0.28521 -1.82267,0.45915 -2.53,0.52217 l -1.69272,-6.06153 c 0.82907,-0.12755 1.542,-0.29091 2.13824,-0.48998 0.59623,-0.19906 1.19849,-0.45977 1.8072,-0.78241 1.21742,-0.64527 1.96855,-1.4724 2.2528,-2.48075 0.33082,-0.99404 0.41781,-2.1901 0.26134,-3.58863 -3.16539,-2.22084 -6.52449,-4.8068 -10.07704,-7.75809 -3.56868,-2.98173 -7.28786,-6.46888 -11.15788,-10.46046 z M 93.830215,307.31712 c 0.791325,-0.41943 1.518112,-0.62914 2.180703,-0.62946 0.693025,-0.0165 1.319861,0.0992 1.880496,0.34789 0.591072,0.23252 1.108085,0.5825 1.550634,1.04969 0.472984,0.45105 0.877652,0.95808 1.214592,1.52023 l -8.993528,4.76682 c -0.215196,-0.62667 -0.376736,-1.26257 -0.484494,-1.9072 -0.09345,-0.6912 -0.07048,-1.34689 0.0689,-1.96657 0.139383,-0.61968 0.418363,-1.19598 0.83715,-1.72983 0.402655,-0.56429 0.984656,-1.04828 1.745545,-1.45157 z" /></g></svg>
